<?xml version="1.0" standalone="no"?>
<!DOCTYPE svg PUBLIC "-//W3C//DTD SVG 20010904//EN"
 "http://www.w3.org/TR/2001/REC-SVG-20010904/DTD/svg10.dtd">
<svg version="1.0" xmlns="http://www.w3.org/2000/svg"
 width="1185.000000pt" height="1185.000000pt" viewBox="0 0 1185.000000 1185.000000"
 preserveAspectRatio="xMidYMid meet">

<g transform="translate(0.000000,1185.000000) scale(0.100000,-0.100000)"
fill="#000000" stroke="none">
<path d="M5635 11074 c-38 -2 -155 -13 -260 -25 -925 -99 -1783 -436 -2536
-995 -377 -280 -800 -708 -1079 -1094 -190 -261 -323 -482 -472 -784 -436
-886 -604 -1905 -478 -2906 126 -1006 546 -1946 1219 -2729 128 -150 444 -460
591 -582 436 -362 905 -639 1430 -847 403 -160 897 -279 1365 -329 230 -24
796 -24 1029 1 878 92 1680 385 2396 874 276 189 452 334 703 582 288 283 468
500 682 820 470 706 745 1468 842 2340 25 224 25 811 0 1040 -114 1039 -500
1962 -1156 2765 -144 176 -453 489 -636 644 -622 529 -1338 894 -2126 1086
-393 95 -720 135 -1149 140 -162 1 -326 1 -365 -1z m-34 -1474 c35 -10 89 -53
89 -71 0 -5 -12 -15 -27 -23 -26 -13 -29 -12 -50 10 -28 31 -90 33 -121 4 -41
-39 -42 -143 -1 -186 40 -43 123 -26 141 27 4 11 10 11 31 2 34 -16 34 -33 1
-72 -66 -79 -209 -57 -259 40 -19 36 -20 151 -1 187 39 74 113 105 197 82z
m-952 -15 c45 -23 55 -75 22 -116 -18 -22 -18 -23 10 -47 24 -20 29 -32 29
-69 0 -36 -6 -50 -29 -74 -29 -28 -32 -29 -135 -29 l-106 0 0 175 0 175 90 0
c60 0 101 -5 119 -15z m201 -130 l0 -145 80 0 80 0 0 -30 0 -30 -115 0 -115 0
0 175 0 175 35 0 35 0 0 -145z m411 78 c12 -38 39 -116 60 -175 l38 -108 -39
0 c-37 0 -40 2 -51 40 l-12 40 -67 0 -67 0 -12 -40 c-11 -38 -14 -40 -51 -40
l-40 0 19 48 c10 26 37 104 61 175 l43 127 48 0 47 0 23 -67z m561 -4 l3 -72
55 71 c51 66 58 71 93 72 20 0 37 -3 37 -6 0 -4 -24 -37 -53 -73 -29 -36 -57
-72 -61 -79 -4 -7 16 -41 55 -90 34 -42 67 -83 72 -89 7 -10 -1 -13 -35 -13
-43 0 -46 2 -106 77 l-62 76 0 -76 0 -77 -35 0 -35 0 0 175 0 175 35 0 34 0 3
-71z m488 41 c0 -29 -1 -30 -50 -30 l-50 0 0 -145 0 -145 -35 0 -35 0 0 144 0
145 -52 3 c-49 3 -53 5 -56 31 l-3 27 140 0 141 0 0 -30z m120 -93 c0 -146 9
-167 70 -167 64 0 70 13 70 161 l0 129 41 0 41 0 -4 -138 c-4 -160 -12 -180
-82 -207 -61 -23 -126 -14 -169 25 l-32 28 -3 146 -3 146 35 0 36 0 0 -123z
m510 108 c50 -26 59 -105 15 -142 -24 -21 -25 -24 -10 -46 12 -19 55 -130 55
-144 0 -1 -17 -3 -38 -3 -38 0 -39 1 -56 58 -23 73 -31 82 -72 82 l-34 0 0
-70 0 -70 -35 0 -35 0 0 175 0 175 90 0 c61 0 101 -5 120 -15z m249 -87 c56
-172 48 -170 95 -28 l43 125 46 3 47 3 0 -175 0 -176 -35 0 -34 0 -3 108 -3
107 -36 -105 c-36 -105 -36 -105 -69 -105 -32 0 -33 1 -71 105 l-38 105 0
-107 -1 -108 -35 0 -35 0 0 175 0 175 48 0 48 0 33 -102z m-3189 -1038 c593
-53 807 -110 1067 -286 158 -107 403 -315 605 -516 l98 -97 0 -1915 c0 -1054
-3 -1916 -6 -1916 -3 0 -45 33 -92 73 -385 326 -742 573 -934 647 -211 82
-558 143 -1041 185 -98 8 -182 15 -188 15 -5 0 -9 714 -9 1921 l0 1921 143 -7
c78 -3 239 -15 357 -25z m4360 -1890 c0 -1206 -4 -1920 -9 -1920 -27 0 -377
-31 -451 -40 -210 -26 -256 -33 -428 -66 -277 -53 -391 -95 -596 -223 -187
-117 -404 -278 -641 -476 l-140 -116 -3 1918 -3 1918 124 121 c260 254 513
458 692 560 113 63 250 112 405 143 229 45 703 93 983 100 l67 1 0 -1920z
m-5062 1624 l72 -6 0 -1844 0 -1844 23 0 c12 0 100 -7 196 -15 495 -42 848
-109 1061 -200 192 -82 776 -433 827 -497 12 -15 114 -331 108 -336 -2 -2 -92
44 -202 103 -497 266 -820 418 -1042 492 -220 72 -661 182 -1111 277 l-205 43
-3 1922 -2 1922 102 -6 c57 -3 136 -8 176 -11z m5542 -1904 c0 -1528 -3 -1921
-12 -1924 -7 -3 -134 -30 -283 -61 -306 -64 -763 -176 -961 -235 -74 -22 -189
-64 -256 -92 -138 -58 -675 -325 -902 -448 -82 -44 -151 -79 -152 -77 -7 7 99
323 114 340 62 69 582 384 797 482 161 73 408 131 740 174 141 18 492 51 546
51 19 0 19 26 19 1845 0 1750 1 1845 18 1846 24 2 248 15 295 17 l37 2 0
-1920z m-6002 1585 c9 -4 12 -378 12 -1829 l0 -1825 33 -5 c17 -2 122 -12 232
-21 353 -28 710 -87 890 -147 167 -56 589 -228 741 -303 202 -99 286 -157 353
-242 30 -37 70 -87 89 -110 l34 -43 -248 86 c-137 47 -285 99 -329 114 -151
52 -670 242 -767 281 -231 92 -546 153 -993 194 -93 8 -198 18 -232 21 l-63 6
0 1917 0 1918 118 -4 c64 -3 123 -6 130 -8z m6432 -1904 l0 -1919 -47 -6 c-27
-3 -88 -8 -138 -11 -147 -10 -419 -42 -587 -69 -218 -36 -350 -70 -508 -131
-193 -76 -669 -247 -995 -359 -154 -53 -297 -103 -318 -111 -27 -10 -36 -10
-30 -2 105 138 181 221 235 257 149 100 778 374 1020 444 209 60 603 119 948
141 52 3 110 8 127 11 l33 5 2 1827 3 1827 110 6 c61 3 118 6 128 7 16 2 17
-95 17 -1917z m-4248 -3538 c2 -119 6 -157 15 -156 14 3 28 -40 18 -56 -13
-22 -78 -6 -97 23 -4 6 -8 86 -8 179 l0 167 35 0 34 0 3 -157z m152 135 c15
-24 -3 -52 -37 -56 -33 -4 -53 28 -37 59 14 25 58 23 74 -3z m1116 -123 c0
-128 2 -147 18 -163 11 -11 21 -29 24 -40 5 -17 1 -23 -17 -28 -33 -8 -78 16
-86 46 -4 14 -7 94 -8 178 l-1 152 35 0 35 0 0 -145z m-1786 107 c49 -29 70
-76 70 -157 0 -120 -54 -180 -166 -180 -61 0 -94 17 -132 68 -21 29 -32 114
-22 172 9 45 58 102 100 115 41 12 112 4 150 -18z m354 -88 c20 -23 22 -35 22
-135 l0 -109 -35 0 -35 0 0 94 c0 73 -4 98 -16 110 -21 21 -40 20 -64 -4 -17
-17 -20 -33 -20 -110 l0 -90 -35 0 -35 0 0 135 0 135 35 0 c26 0 35 -4 35 -17
0 -14 2 -15 18 -1 40 35 95 32 130 -8z m581 21 c16 -8 31 -22 35 -30 3 -9 6
-66 6 -126 l0 -109 -35 0 -35 0 0 100 c0 89 -2 100 -20 110 -26 14 -58 -2 -70
-36 -6 -14 -10 -59 -10 -100 l0 -74 -35 0 -35 0 0 135 0 135 35 0 c26 0 35 -4
35 -17 0 -14 2 -15 18 -1 34 31 70 35 111 13z m314 -26 c24 -26 28 -38 25 -77
l-3 -47 -82 -3 c-46 -2 -83 -6 -83 -10 0 -41 73 -60 108 -28 18 16 21 15 43
-3 24 -19 24 -19 5 -40 -47 -52 -146 -49 -197 5 -21 22 -24 35 -24 99 0 59 4
77 20 95 52 58 139 62 188 9z m372 27 c18 -8 38 -23 44 -34 9 -17 6 -23 -15
-37 -23 -14 -27 -15 -37 -2 -38 48 -107 10 -107 -58 0 -71 71 -107 108 -55 11
16 18 17 38 8 30 -14 30 -28 0 -61 -47 -51 -145 -43 -189 15 -29 38 -34 122
-10 168 19 37 72 70 111 70 12 0 38 -6 57 -14z m401 4 c45 -17 53 -38 54 -127
0 -64 3 -83 14 -83 14 0 29 -37 20 -52 -10 -15 -73 -9 -82 9 -9 15 -12 14 -37
-5 -59 -47 -135 -6 -135 72 0 32 40 65 96 79 38 9 49 16 49 32 0 28 -38 31
-79 7 -32 -19 -33 -19 -44 -1 -19 30 -14 39 31 59 48 22 74 24 113 10z m297
-19 c17 -17 17 -18 -1 -34 -15 -14 -23 -15 -49 -5 -34 13 -63 6 -63 -16 0 -9
21 -21 55 -30 58 -18 85 -44 85 -86 0 -81 -120 -117 -195 -59 l-26 21 22 24
21 23 28 -20 c34 -25 75 -22 75 6 0 14 -11 22 -44 32 -78 22 -109 71 -80 124
25 48 132 60 172 20z m222 15 c38 -16 44 -36 19 -57 -12 -10 -20 -10 -35 -1
-23 15 -66 16 -74 2 -10 -17 13 -37 49 -44 55 -10 86 -41 86 -85 0 -69 -73
-107 -154 -79 -52 17 -66 40 -42 67 l18 20 28 -20 c34 -25 75 -22 75 6 0 14
-13 24 -48 36 -64 23 -77 35 -77 74 0 49 9 66 44 81 40 17 69 17 111 0z m270
-1 c40 -20 58 -52 59 -107 l1 -43 -86 -5 c-83 -5 -86 -6 -78 -26 11 -32 57
-40 90 -15 27 20 28 20 51 1 l23 -20 -28 -25 c-58 -51 -151 -40 -194 24 -46
68 -21 179 47 213 43 22 72 23 115 3z m260 1 c38 -16 44 -36 19 -57 -12 -10
-20 -10 -35 -1 -23 15 -66 16 -74 2 -10 -17 13 -37 49 -44 55 -10 86 -41 86
-85 0 -69 -73 -107 -154 -79 -52 17 -66 40 -42 67 l18 20 28 -20 c34 -25 75
-22 75 6 0 14 -13 24 -48 36 -64 23 -77 35 -77 74 0 49 9 66 44 81 40 17 69
17 111 0z m-2405 -131 l0 -135 -35 0 -35 0 0 135 0 135 35 0 35 0 0 -135z"/>
<path d="M4510 9505 l0 -45 38 0 c51 0 77 19 69 52 -7 26 -30 38 -79 38 -26 0
-28 -3 -28 -45z"/>
<path d="M4510 9360 l0 -50 53 0 c58 0 77 12 77 46 0 37 -26 54 -81 54 l-49 0
0 -50z"/>
<path d="M5167 9460 c-9 -33 -17 -62 -17 -65 0 -3 18 -5 40 -5 22 0 40 4 40 8
0 14 -32 106 -40 115 -3 4 -14 -19 -23 -53z"/>
<path d="M6800 9496 l0 -46 38 0 c51 0 75 18 70 55 -3 29 -6 30 -55 33 l-53 3
0 -45z"/>
<path d="M4356 2491 c-40 -44 -43 -137 -4 -186 25 -31 84 -35 119 -6 21 17 24
27 24 96 0 69 -3 79 -24 96 -31 25 -92 25 -115 0z"/>
<path d="M5624 2415 c-9 -14 -14 -28 -11 -31 2 -3 28 -4 56 -2 50 3 50 3 38
28 -18 36 -61 39 -83 5z"/>
<path d="M6470 2336 c-28 -9 -35 -16 -35 -36 0 -19 6 -26 26 -28 31 -4 52 18
47 51 -3 24 -5 24 -38 13z"/>
<path d="M7223 2428 c-30 -39 -24 -48 32 -48 41 0 55 4 55 14 0 37 -65 62 -87
34z"/>
</g>
</svg>
